<svg width="94" height="24" viewBox="0 0 94 24" fill="none" xmlns="http://www.w3.org/2000/svg">
<g clip-path="url(#clip0_539_532)">
<path d="M1.14773 18V6.36364H5.51136C6.4053 6.36364 7.1553 6.5303 7.76136 6.86364C8.37121 7.19697 8.83144 7.6553 9.14205 8.23864C9.45644 8.81818 9.61364 9.47727 9.61364 10.2159C9.61364 10.9621 9.45644 11.625 9.14205 12.2045C8.82765 12.7841 8.36364 13.2405 7.75 13.5739C7.13636 13.9034 6.38068 14.0682 5.48295 14.0682H2.59091V12.3352H5.19886C5.72159 12.3352 6.14962 12.2443 6.48295 12.0625C6.81629 11.8807 7.0625 11.6307 7.22159 11.3125C7.38447 10.9943 7.46591 10.6288 7.46591 10.2159C7.46591 9.80303 7.38447 9.43939 7.22159 9.125C7.0625 8.81061 6.81439 8.56629 6.47727 8.39205C6.14394 8.21402 5.71402 8.125 5.1875 8.125H3.25568V18H1.14773ZM11.3537 18V9.27273H13.348V10.7273H13.4389C13.598 10.2235 13.8707 9.83523 14.2571 9.5625C14.6473 9.28598 15.0923 9.14773 15.5923 9.14773C15.706 9.14773 15.8329 9.15341 15.973 9.16477C16.117 9.17235 16.2363 9.18561 16.331 9.20455V11.0966C16.2438 11.0663 16.1056 11.0398 15.9162 11.017C15.7306 10.9905 15.5507 10.9773 15.3764 10.9773C15.0014 10.9773 14.6643 11.0587 14.3651 11.2216C14.0696 11.3807 13.8366 11.6023 13.6662 11.8864C13.4957 12.1705 13.4105 12.4981 13.4105 12.8693V18H11.3537ZM21.1449 18.1705C20.2926 18.1705 19.554 17.983 18.929 17.608C18.304 17.233 17.8191 16.7083 17.4744 16.0341C17.1335 15.3598 16.9631 14.572 16.9631 13.6705C16.9631 12.7689 17.1335 11.9792 17.4744 11.3011C17.8191 10.6231 18.304 10.0966 18.929 9.72159C19.554 9.34659 20.2926 9.15909 21.1449 9.15909C21.9972 9.15909 22.7358 9.34659 23.3608 9.72159C23.9858 10.0966 24.4688 10.6231 24.8097 11.3011C25.1544 11.9792 25.3267 12.7689 25.3267 13.6705C25.3267 14.572 25.1544 15.3598 24.8097 16.0341C24.4688 16.7083 23.9858 17.233 23.3608 17.608C22.7358 17.983 21.9972 18.1705 21.1449 18.1705ZM21.1562 16.5227C21.6184 16.5227 22.0047 16.3958 22.3153 16.142C22.6259 15.8845 22.857 15.5398 23.0085 15.108C23.1638 14.6761 23.2415 14.1951 23.2415 13.6648C23.2415 13.1307 23.1638 12.6477 23.0085 12.2159C22.857 11.7803 22.6259 11.4337 22.3153 11.1761C22.0047 10.9186 21.6184 10.7898 21.1562 10.7898C20.6828 10.7898 20.2888 10.9186 19.9744 11.1761C19.6638 11.4337 19.4309 11.7803 19.2756 12.2159C19.1241 12.6477 19.0483 13.1307 19.0483 13.6648C19.0483 14.1951 19.1241 14.6761 19.2756 15.108C19.4309 15.5398 19.6638 15.8845 19.9744 16.142C20.2888 16.3958 20.6828 16.5227 21.1562 16.5227ZM30.3111 18.1534C29.6255 18.1534 29.0118 17.9773 28.4702 17.625C27.9285 17.2727 27.5005 16.7614 27.1861 16.0909C26.8717 15.4205 26.7145 14.6061 26.7145 13.6477C26.7145 12.678 26.8736 11.8598 27.1918 11.1932C27.5137 10.5227 27.9474 10.017 28.4929 9.67614C29.0384 9.33144 29.6463 9.15909 30.3168 9.15909C30.8281 9.15909 31.2486 9.24621 31.5781 9.42045C31.9077 9.59091 32.169 9.79735 32.3622 10.0398C32.5554 10.2784 32.705 10.5038 32.8111 10.7159H32.8963V6.36364H34.9588V18H32.9361V16.625H32.8111C32.705 16.8371 32.5516 17.0625 32.3509 17.3011C32.1501 17.536 31.8849 17.7367 31.5554 17.9034C31.2259 18.0701 30.8111 18.1534 30.3111 18.1534ZM30.8849 16.4659C31.3205 16.4659 31.6918 16.3485 31.9986 16.1136C32.3054 15.875 32.5384 15.5436 32.6974 15.1193C32.8565 14.6951 32.9361 14.2008 32.9361 13.6364C32.9361 13.072 32.8565 12.5814 32.6974 12.1648C32.5421 11.7481 32.3111 11.4242 32.0043 11.1932C31.7012 10.9621 31.3281 10.8466 30.8849 10.8466C30.4266 10.8466 30.044 10.9659 29.7372 11.2045C29.4304 11.4432 29.1993 11.7727 29.044 12.1932C28.8887 12.6136 28.8111 13.0947 28.8111 13.6364C28.8111 14.1818 28.8887 14.6686 29.044 15.0966C29.2031 15.5208 29.4361 15.8561 29.7429 16.1023C30.0535 16.3447 30.4342 16.4659 30.8849 16.4659ZM42.7131 14.3295V9.27273H44.7699V18H42.7756V16.4489H42.6847C42.4877 16.9375 42.1638 17.3371 41.7131 17.6477C41.2661 17.9583 40.715 18.1136 40.0597 18.1136C39.4877 18.1136 38.982 17.9867 38.5426 17.733C38.107 17.4754 37.7661 17.1023 37.5199 16.6136C37.2737 16.1212 37.1506 15.5265 37.1506 14.8295V9.27273H39.2074V14.5114C39.2074 15.0644 39.3589 15.5038 39.6619 15.8295C39.965 16.1553 40.3627 16.3182 40.8551 16.3182C41.1581 16.3182 41.4517 16.2443 41.7358 16.0966C42.0199 15.9489 42.2528 15.7292 42.4347 15.4375C42.6203 15.142 42.7131 14.7727 42.7131 14.3295ZM50.6918 18.1705C49.8205 18.1705 49.0724 17.9792 48.4474 17.5966C47.8262 17.214 47.3471 16.6856 47.0099 16.0114C46.6766 15.3333 46.5099 14.553 46.5099 13.6705C46.5099 12.7841 46.6804 12.0019 47.0213 11.3239C47.3622 10.642 47.8433 10.1117 48.4645 9.73295C49.0895 9.35038 49.8281 9.15909 50.6804 9.15909C51.3887 9.15909 52.0156 9.28977 52.5611 9.55114C53.1103 9.80871 53.5478 10.1742 53.8736 10.6477C54.1993 11.1174 54.3849 11.6667 54.4304 12.2955H52.4645C52.3849 11.875 52.1955 11.5246 51.8963 11.2443C51.6009 10.9602 51.205 10.8182 50.7088 10.8182C50.2884 10.8182 49.919 10.9318 49.6009 11.1591C49.2827 11.3826 49.0346 11.7045 48.8565 12.125C48.6823 12.5455 48.5952 13.0492 48.5952 13.6364C48.5952 14.2311 48.6823 14.7424 48.8565 15.1705C49.0308 15.5947 49.2751 15.9223 49.5895 16.1534C49.9077 16.3807 50.2808 16.4943 50.7088 16.4943C51.0118 16.4943 51.2827 16.4375 51.5213 16.3239C51.7637 16.2064 51.9664 16.0379 52.1293 15.8182C52.2921 15.5985 52.4039 15.3314 52.4645 15.017H54.4304C54.3812 15.6345 54.1993 16.1818 53.8849 16.6591C53.5705 17.1326 53.1425 17.5038 52.6009 17.7727C52.0592 18.0379 51.4228 18.1705 50.6918 18.1705ZM60.4773 9.27273V10.8636H55.4602V9.27273H60.4773ZM56.6989 7.18182H58.7557V15.375C58.7557 15.6515 58.7973 15.8636 58.8807 16.0114C58.9678 16.1553 59.0814 16.2538 59.2216 16.3068C59.3617 16.3598 59.517 16.3864 59.6875 16.3864C59.8163 16.3864 59.9337 16.3769 60.0398 16.358C60.1496 16.339 60.233 16.322 60.2898 16.3068L60.6364 17.9148C60.5265 17.9527 60.3693 17.9943 60.1648 18.0398C59.964 18.0852 59.7178 18.1117 59.4261 18.1193C58.911 18.1345 58.447 18.0568 58.0341 17.8864C57.6212 17.7121 57.2936 17.4432 57.0511 17.0795C56.8125 16.7159 56.6951 16.2614 56.6989 15.7159V7.18182ZM68.9702 11.5795L67.0952 11.7841C67.0421 11.5947 66.9493 11.4167 66.8168 11.25C66.688 11.0833 66.5137 10.9489 66.294 10.8466C66.0743 10.7443 65.8054 10.6932 65.4872 10.6932C65.0592 10.6932 64.6993 10.786 64.4077 10.9716C64.1198 11.1572 63.9777 11.3977 63.9815 11.6932C63.9777 11.947 64.0705 12.1534 64.2599 12.3125C64.4531 12.4716 64.7713 12.6023 65.2145 12.7045L66.7031 13.0227C67.5289 13.2008 68.1425 13.483 68.544 13.8693C68.9493 14.2557 69.1539 14.7614 69.1577 15.3864C69.1539 15.9356 68.9929 16.4205 68.6747 16.8409C68.3603 17.2576 67.9228 17.5833 67.3622 17.8182C66.8016 18.053 66.1577 18.1705 65.4304 18.1705C64.3622 18.1705 63.5024 17.947 62.8509 17.5C62.1993 17.0492 61.8111 16.4223 61.6861 15.6193L63.6918 15.4261C63.7827 15.8201 63.9759 16.1174 64.2713 16.3182C64.5668 16.5189 64.9512 16.6193 65.4247 16.6193C65.9134 16.6193 66.3054 16.5189 66.6009 16.3182C66.9001 16.1174 67.0497 15.8693 67.0497 15.5739C67.0497 15.3239 66.9531 15.1174 66.7599 14.9545C66.5705 14.7917 66.2751 14.6667 65.8736 14.5795L64.3849 14.267C63.5478 14.0928 62.9285 13.7992 62.527 13.3864C62.1255 12.9697 61.9266 12.4432 61.9304 11.8068C61.9266 11.2689 62.0724 10.803 62.3679 10.4091C62.6671 10.0114 63.0819 9.70455 63.6122 9.48864C64.1463 9.26894 64.7618 9.15909 65.4588 9.15909C66.4815 9.15909 67.2865 9.37689 67.8736 9.8125C68.4645 10.2481 68.83 10.8371 68.9702 11.5795Z" fill="white"/>
<path d="M79 9.5L84 14.5L89 9.5" stroke="white" stroke-width="1.66667" stroke-linecap="round" stroke-linejoin="round"/>
</g>
<defs>
<clipPath id="clip0_539_532">
<rect width="94" height="24" fill="white"/>
</clipPath>
</defs>
</svg>
